<?xml version="1.0" standalone="no"?>
<!DOCTYPE svg PUBLIC "-//W3C//DTD SVG 20010904//EN"
 "http://www.w3.org/TR/2001/REC-SVG-20010904/DTD/svg10.dtd">
<svg version="1.0" xmlns="http://www.w3.org/2000/svg"
 width="512.000000pt" height="512.000000pt" viewBox="0 0 512.000000 512.000000"
 preserveAspectRatio="xMidYMid meet">
<metadata>
Created by potrace 1.11, written by Peter Selinger 2001-2013
</metadata>
<g transform="translate(0.000000,512.000000) scale(0.100000,-0.100000)"
fill="#000000" stroke="none">
<path d="M627 5000 c-137 -31 -253 -62 -259 -68 -27 -27 -20 -102 27 -314 26
-117 48 -214 49 -214 2 -3 606 133 610 137 8 8 -90 424 -107 456 -15 29 -53
64 -67 62 -3 0 -117 -27 -253 -59z"/>
<path d="M1055 4170 c-58 -13 -70 -19 -69 -35 1 -20 595 -2667 600 -2673 1 -2
12 6 23 17 28 28 64 35 98 19 51 -25 57 -53 56 -273 0 -110 -1 -302 -2 -427
l-1 -227 -37 -10 c-21 -6 -77 -19 -125 -29 l-86 -19 -180 371 -180 371 -57
250 c-32 138 -61 268 -66 290 -4 22 -44 200 -89 395 -44 195 -93 411 -108 480
l-27 125 -3 -1010 c-2 -987 -2 -1012 18 -1076 34 -115 128 -216 240 -261 49
-20 77 -22 273 -26 l218 -4 79 -159 c61 -121 85 -159 99 -159 28 0 31 18 31
176 l0 144 435 0 c341 0 435 3 435 13 0 9 2 9 8 -1 7 -10 167 -12 808 -10
l799 3 67 32 c126 60 213 170 238 302 6 34 10 441 10 1098 0 833 3 1043 13
1037 19 -12 -1223 1242 -1253 1264 -33 25 -27 24 -387 23 -269 -1 -292 -2
-296 -18 -4 -17 -5 -17 -6 0 -1 16 -42 17 -688 19 -379 1 -717 2 -753 3 -36 0
-97 -7 -135 -15z m1582 -62 c-3 -8 -6 -5 -6 6 -1 11 2 17 5 13 3 -3 4 -12 1
-19z m1319 -628 l528 -555 -164 -8 c-91 -4 -313 -6 -495 -5 -288 3 -334 5
-361 20 -46 25 -92 82 -104 130 -8 29 -11 193 -8 545 l3 503 36 -38 c20 -20
274 -287 565 -592z m-1319 578 c-3 -7 -5 -2 -5 12 0 14 2 19 5 13 2 -7 2 -19
0 -25z m0 -40 c-3 -8 -6 -5 -6 6 -1 11 2 17 5 13 3 -3 4 -12 1 -19z m0 -50
c-3 -8 -6 -5 -6 6 -1 11 2 17 5 13 3 -3 4 -12 1 -19z m0 -50 c-3 -8 -6 -5 -6
6 -1 11 2 17 5 13 3 -3 4 -12 1 -19z m0 -50 c-3 -7 -5 -2 -5 12 0 14 2 19 5
13 2 -7 2 -19 0 -25z m0 -50 c-3 -7 -5 -2 -5 12 0 14 2 19 5 13 2 -7 2 -19 0
-25z m0 -50 c-3 -7 -5 -2 -5 12 0 14 2 19 5 13 2 -7 2 -19 0 -25z m0 -40 c-3
-8 -6 -5 -6 6 -1 11 2 17 5 13 3 -3 4 -12 1 -19z m31 -71 c18 4 112 -18 112
-26 0 -4 6 -8 13 -8 61 0 261 -167 271 -226 1 -6 9 -23 18 -37 36 -55 52 -132
52 -240 -1 -58 -3 -114 -7 -125 -12 -45 -38 -95 -48 -95 -5 0 -7 -5 -4 -10 4
-6 2 -16 -3 -23 -5 -7 -10 -19 -11 -27 0 -8 -4 -32 -7 -53 -12 -76 42 -246
120 -378 19 -31 37 -67 41 -78 3 -12 11 -21 16 -21 5 0 9 -6 9 -13 0 -7 14
-26 30 -42 17 -16 30 -33 30 -37 0 -12 52 -57 65 -58 6 0 11 -9 12 -20 1 -13
-2 -18 -10 -14 -7 4 -8 3 -4 -2 5 -5 18 -9 30 -9 13 -1 21 -6 19 -14 -1 -7 2
-10 7 -7 5 4 12 2 16 -3 3 -6 13 -7 22 -4 12 5 15 2 10 -10 -5 -14 -2 -15 18
-7 17 7 25 6 25 -1 0 -8 4 -8 13 -2 12 9 23 10 97 4 27 -2 30 -4 15 -9 -12 -4
-80 -42 -152 -85 -133 -78 -150 -86 -137 -65 4 7 3 8 -5 4 -6 -4 -9 -11 -6
-16 3 -4 -27 -27 -65 -49 -43 -26 -68 -47 -64 -53 5 -7 2 -9 -8 -6 -8 4 -30
-2 -47 -13 -17 -10 -47 -25 -66 -33 l-35 -15 25 49 c14 28 25 52 25 55 0 3 7
17 17 32 10 15 17 46 18 74 0 26 4 51 9 56 5 5 6 2 2 -5 -6 -10 0 -10 22 2 37
19 46 20 36 4 -4 -7 -3 -8 5 -4 6 4 8 12 5 18 -5 8 -1 9 10 5 11 -4 15 -3 11
4 -4 6 1 9 11 7 12 -2 18 2 16 11 -2 9 3 11 13 7 9 -3 13 -2 10 4 -6 9 8 14
28 11 5 -1 6 3 2 9 -3 5 -2 10 2 10 5 0 18 7 29 16 26 21 14 15 -83 -40 -46
-27 -88 -44 -94 -40 -7 4 -9 3 -5 -4 4 -7 -1 -10 -13 -9 -16 1 -22 11 -28 47
-4 25 -7 51 -6 57 0 7 -3 10 -8 7 -5 -3 -9 2 -9 10 0 8 -8 20 -17 25 -10 6
-13 11 -6 11 8 0 5 15 -9 47 -12 27 -17 48 -11 50 6 2 19 11 29 19 16 13 15
13 -13 -1 l-32 -15 -36 61 c-19 33 -35 62 -35 65 0 4 -11 18 -50 62 -11 12
-17 22 -14 22 4 0 -5 9 -20 21 -14 11 -23 26 -19 32 3 7 3 9 -1 5 -4 -3 -27 8
-50 26 -63 47 -99 60 -136 48 -50 -18 -34 -4 40 33 39 19 70 38 70 40 0 15
-142 -69 -150 -88 -7 -17 -9 -18 -9 -4 -1 19 0 18 -50 21 -52 3 -137 -57 -205
-145 -31 -41 -63 -81 -70 -89 -7 -9 -11 -21 -9 -27 2 -6 -9 -25 -24 -44 -15
-18 -22 -29 -15 -25 19 11 0 -25 -22 -44 -9 -7 -16 -20 -16 -29 0 -9 -5 -22
-12 -29 -9 -9 -8 -12 8 -12 16 0 16 -2 -5 -13 -30 -14 -52 -82 -58 -176 -5
-68 3 -91 68 -187 16 -23 25 -45 21 -49 -4 -3 -2 -6 3 -4 18 4 45 -13 38 -24
-3 -6 -1 -7 5 -3 6 4 25 0 41 -9 17 -8 43 -15 59 -15 15 0 37 -7 48 -15 10 -8
28 -15 39 -15 12 0 27 -6 34 -13 11 -9 13 -9 7 1 -5 8 0 12 14 12 12 0 18 -4
15 -10 -4 -6 2 -7 17 -1 38 13 260 11 251 -3 -4 -7 0 -3 10 7 9 11 17 14 17 8
0 -7 4 -9 10 -6 15 9 100 26 100 20 0 -4 -70 -45 -76 -45 -3 0 -2 5 2 12 4 7
3 8 -5 4 -6 -4 -8 -12 -5 -18 5 -8 1 -9 -10 -5 -9 4 -15 3 -12 -2 4 -5 -30
-30 -74 -56 -44 -26 -80 -49 -80 -51 0 -11 197 99 338 189 35 22 70 40 77 40
8 0 11 5 8 10 -4 6 0 8 10 4 10 -4 70 27 164 84 81 49 154 87 161 84 7 -3 10
-1 7 5 -8 12 32 33 48 24 6 -5 5 1 -3 11 -14 17 -14 18 9 6 19 -11 22 -11 16
0 -6 9 -4 11 7 6 18 -6 30 1 22 14 -3 5 -15 4 -27 -2 -21 -10 -21 -10 -2 6 11
8 25 13 32 11 6 -3 13 -1 15 3 2 5 26 19 53 33 44 21 56 23 103 15 30 -5 56
-15 59 -23 3 -8 13 -14 23 -14 20 0 43 -24 33 -34 -4 -4 1 -4 10 0 14 5 33 -9
78 -57 65 -67 97 -122 123 -208 19 -65 19 -64 4 -55 -10 6 -10 4 0 -7 14 -16
16 -33 2 -24 -5 3 -10 1 -10 -4 0 -6 4 -11 9 -11 12 0 11 -59 0 -82 -6 -10 -5
-19 1 -23 6 -4 8 -10 5 -15 -3 -4 -7 -24 -9 -44 -10 -76 -19 -105 -36 -124
-10 -11 -16 -23 -13 -26 4 -3 1 -6 -5 -6 -6 0 -9 -7 -6 -15 7 -18 -99 -127
-163 -167 -66 -42 -123 -69 -132 -64 -5 3 -23 -1 -40 -10 -34 -17 -101 -26
-101 -14 0 4 -15 5 -33 1 -18 -5 -41 -4 -52 0 -11 4 -32 8 -47 8 -16 1 -28 6
-28 12 0 5 6 7 13 3 6 -4 9 -4 5 1 -4 4 -23 9 -43 10 -19 1 -43 9 -53 18 -10
10 -24 17 -31 17 -19 0 -82 51 -75 61 3 5 2 9 -3 8 -24 -4 -25 4 -3 22 24 19
24 20 2 9 -13 -6 -30 -9 -37 -6 -14 5 -100 126 -90 126 5 0 -69 65 -100 88
-22 16 -142 52 -172 52 -18 0 -33 4 -33 9 0 5 -10 7 -22 3 -11 -3 -19 -1 -16
4 4 5 -7 9 -22 9 -15 0 -26 -3 -23 -7 2 -5 -7 -8 -21 -8 -30 0 -33 7 -8 27 15
13 15 13 -5 4 -12 -6 -24 -16 -26 -23 -4 -9 -8 -10 -14 -3 -4 6 -17 9 -28 8
-11 -2 -43 -5 -72 -8 -34 -3 -72 -16 -109 -37 -32 -17 -55 -27 -51 -21 4 6 20
16 37 23 16 7 30 17 30 22 0 5 -9 4 -20 -2 -11 -6 -20 -8 -20 -5 0 8 -108 -52
-132 -73 -10 -8 -15 -18 -12 -23 2 -4 -4 -13 -15 -18 -10 -6 -22 -23 -26 -38
-7 -28 -64 -90 -78 -85 -5 1 -6 -1 -3 -6 13 -22 -161 -137 -224 -149 -24 -4
-25 -4 -5 12 11 8 14 14 6 13 -8 -2 -15 7 -17 22 -4 22 4 30 47 55 28 17 55
29 60 27 5 -1 9 3 9 9 0 5 5 7 12 3 7 -4 8 -3 4 4 -7 11 6 17 27 13 5 -1 6 3
2 9 -4 7 -35 -5 -83 -29 -42 -22 -78 -39 -80 -36 -3 2 -1 12 3 22 5 10 7 22 6
26 -1 4 7 7 16 5 10 -2 17 2 15 9 -1 7 2 13 6 13 5 0 17 7 28 15 11 10 2 8
-23 -5 -31 -14 -43 -17 -43 -8 0 7 90 62 200 122 110 60 198 111 196 113 -5 6
-261 -127 -328 -170 -62 -40 -78 -45 -78 -22 0 19 55 54 283 179 97 54 177
100 177 103 0 5 -105 -50 -321 -168 -69 -38 -129 -69 -133 -69 -22 0 26 35
110 81 94 50 114 66 72 54 -20 -5 -21 -5 -5 5 10 7 25 9 33 6 10 -4 12 -2 8 6
-5 8 -2 9 10 5 11 -5 15 -3 10 5 -5 8 -1 9 12 4 10 -4 15 -4 12 0 -4 3 54 37
129 75 123 61 184 99 158 99 -25 -1 -390 -199 -387 -210 2 -8 -3 -10 -13 -6
-9 3 -14 2 -11 -3 5 -7 -29 -24 -135 -69 -4 -2 -7 13 -7 32 0 32 5 38 60 70
33 20 64 33 70 30 7 -4 8 -2 4 4 -7 11 6 17 27 13 5 -1 6 3 2 9 -3 6 -9 9 -13
7 -4 -2 -40 -24 -80 -47 -60 -35 -75 -41 -83 -29 -21 33 -8 48 76 94 47 26 85
48 85 50 0 2 -10 1 -22 -2 -20 -4 -19 -2 5 12 37 21 35 29 -3 10 -18 -9 -28
-20 -24 -27 5 -7 2 -9 -9 -5 -9 3 -16 2 -14 -3 3 -12 -98 -71 -107 -63 -17 17
2 36 84 83 50 28 90 54 90 56 0 6 -62 -26 -130 -66 -28 -16 -52 -30 -54 -30
-4 0 -11 35 -30 145 -3 13 -7 29 -11 34 -3 6 21 24 55 41 33 17 60 33 60 35 0
3 -27 -8 -59 -25 -60 -30 -87 -27 -59 7 9 12 9 15 1 9 -7 -4 -13 -3 -13 2 0 5
11 14 25 20 32 15 38 15 29 0 -4 -7 -3 -8 5 -4 6 4 8 12 5 18 -5 8 -1 9 10 5
11 -5 15 -3 10 5 -5 8 -2 9 10 5 9 -4 15 -3 12 1 -3 5 24 25 60 45 106 62 72
53 -52 -13 -64 -34 -117 -60 -118 -58 -2 2 -23 90 -32 133 -10 48 -7 57 21 81
l30 26 -32 -22 c-18 -12 -33 -20 -34 -18 0 2 -2 15 -4 30 -3 24 -1 26 18 19
14 -6 38 -1 75 16 29 13 59 20 65 17 7 -4 9 -4 5 1 -10 11 44 56 59 51 8 -3
10 1 6 11 -4 10 6 27 29 47 19 17 38 40 42 51 3 11 16 31 28 45 30 34 48 66
48 86 0 10 11 32 25 50 14 18 25 39 25 46 0 8 5 19 11 25 19 19 41 118 40 182
-2 55 -9 78 -46 153 -51 102 -75 201 -71 296 3 77 40 208 66 237 10 11 21 30
25 43 3 12 9 22 13 22 4 0 30 21 57 46 55 51 118 94 137 94 6 0 32 10 57 22
41 20 75 26 154 27 21 1 27 6 27 24 0 22 1 22 13 -3 8 -14 19 -24 25 -23z
m-31 -1129 c-3 -7 -5 -2 -5 12 0 14 2 19 5 13 2 -7 2 -19 0 -25z m0 -90 c-3
-8 -6 -5 -6 6 -1 11 2 17 5 13 3 -3 4 -12 1 -19z m0 -50 c-3 -8 -6 -5 -6 6 -1
11 2 17 5 13 3 -3 4 -12 1 -19z m0 -50 c-3 -8 -6 -5 -6 6 -1 11 2 17 5 13 3
-3 4 -12 1 -19z m0 -50 c-3 -8 -6 -5 -6 6 -1 11 2 17 5 13 3 -3 4 -12 1 -19z
m0 -40 c-3 -8 -6 -5 -6 6 -1 11 2 17 5 13 3 -3 4 -12 1 -19z m0 -50 c-3 -8 -6
-5 -6 6 -1 11 2 17 5 13 3 -3 4 -12 1 -19z m23 -43 c0 -2 -7 -5 -15 -9 -9 -3
-15 0 -15 9 0 9 6 12 15 9 8 -4 15 -7 15 -9z m-1783 -1 c-3 -3 -12 -4 -19 -1
-8 3 -5 6 6 6 11 1 17 -2 13 -5z m50 0 c-3 -3 -12 -4 -19 -1 -8 3 -5 6 6 6 11
1 17 -2 13 -5z m820 0 c-3 -3 -12 -4 -19 -1 -8 3 -5 6 6 6 11 1 17 -2 13 -5z
m40 0 c-3 -3 -12 -4 -19 -1 -8 3 -5 6 6 6 11 1 17 -2 13 -5z m50 0 c-3 -3 -12
-4 -19 -1 -8 3 -5 6 6 6 11 1 17 -2 13 -5z m50 0 c-3 -3 -12 -4 -19 -1 -8 3
-5 6 6 6 11 1 17 -2 13 -5z m390 0 c-3 -3 -12 -4 -19 -1 -8 3 -5 6 6 6 11 1
17 -2 13 -5z m40 0 c-3 -3 -12 -4 -19 -1 -8 3 -5 6 6 6 11 1 17 -2 13 -5z m50
0 c-3 -3 -12 -4 -19 -1 -8 3 -5 6 6 6 11 1 17 -2 13 -5z m50 0 c-3 -3 -12 -4
-19 -1 -8 3 -5 6 6 6 11 1 17 -2 13 -5z m50 0 c-3 -3 -12 -4 -19 -1 -8 3 -5 6
6 6 11 1 17 -2 13 -5z m240 0 c-3 -3 -12 -4 -19 -1 -8 3 -5 6 6 6 11 1 17 -2
13 -5z m190 0 c-3 -3 -12 -4 -19 -1 -8 3 -5 6 6 6 11 1 17 -2 13 -5z m50 0
c-3 -3 -12 -4 -19 -1 -8 3 -5 6 6 6 11 1 17 -2 13 -5z m480 0 c-3 -3 -12 -4
-19 -1 -8 3 -5 6 6 6 11 1 17 -2 13 -5z m50 0 c-3 -3 -12 -4 -19 -1 -8 3 -5 6
6 6 11 1 17 -2 13 -5z m190 0 c-3 -3 -12 -4 -19 -1 -8 3 -5 6 6 6 11 1 17 -2
13 -5z m50 0 c-3 -3 -12 -4 -19 -1 -8 3 -5 6 6 6 11 1 17 -2 13 -5z m240 0
c-3 -3 -12 -4 -19 -1 -8 3 -5 6 6 6 11 1 17 -2 13 -5z m50 0 c-3 -3 -12 -4
-19 -1 -8 3 -5 6 6 6 11 1 17 -2 13 -5z m190 0 c-3 -3 -12 -4 -19 -1 -8 3 -5
6 6 6 11 1 17 -2 13 -5z m50 0 c-3 -3 -12 -4 -19 -1 -8 3 -5 6 6 6 11 1 17 -2
13 -5z m190 0 c-3 -3 -12 -4 -19 -1 -8 3 -5 6 6 6 11 1 17 -2 13 -5z m50 0
c-3 -3 -12 -4 -19 -1 -8 3 -5 6 6 6 11 1 17 -2 13 -5z m-1850 -56 c-3 -8 -6
-5 -6 6 -1 11 2 17 5 13 3 -3 4 -12 1 -19z m0 -140 c-3 -8 -6 -5 -6 6 -1 11 2
17 5 13 3 -3 4 -12 1 -19z m823 -13 c0 -2 -13 -11 -30 -20 -38 -19 -40 -11 -2
9 31 17 32 18 32 11z m-823 -37 c-3 -8 -6 -5 -6 6 -1 11 2 17 5 13 3 -3 4 -12
1 -19z m753 -3 c0 -2 -13 -11 -30 -20 -38 -19 -40 -11 -2 9 31 17 32 18 32 11z
m-70 -40 c0 -2 -10 -9 -22 -15 -22 -11 -22 -10 -4 4 21 17 26 19 26 11z m-50
-30 c0 -2 -10 -9 -22 -15 -22 -11 -22 -10 -4 4 21 17 26 19 26 11z m-100 -60
c0 -2 -10 -9 -22 -15 -22 -11 -22 -10 -4 4 21 17 26 19 26 11z m-533 -57 c-3
-8 -6 -5 -6 6 -1 11 2 17 5 13 3 -3 4 -12 1 -19z m0 -50 c-3 -8 -6 -5 -6 6 -1
11 2 17 5 13 3 -3 4 -12 1 -19z m353 18 c0 -2 -7 -7 -16 -10 -8 -3 -12 -2 -9
4 6 10 25 14 25 6z m-705 -326 c-3 -5 -12 -10 -18 -10 -7 0 -6 4 3 10 19 12
23 12 15 0z m352 -22 c-3 -8 -6 -5 -6 6 -1 11 2 17 5 13 3 -3 4 -12 1 -19z m0
-50 c-3 -8 -6 -5 -6 6 -1 11 2 17 5 13 3 -3 4 -12 1 -19z m0 -50 c-3 -8 -6 -5
-6 6 -1 11 2 17 5 13 3 -3 4 -12 1 -19z m0 -190 c-3 -8 -6 -5 -6 6 -1 11 2 17
5 13 3 -3 4 -12 1 -19z m0 -50 c-3 -8 -6 -5 -6 6 -1 11 2 17 5 13 3 -3 4 -12
1 -19z m0 -190 c-3 -8 -6 -5 -6 6 -1 11 2 17 5 13 3 -3 4 -12 1 -19z m0 -50
c-3 -8 -6 -5 -6 6 -1 11 2 17 5 13 3 -3 4 -12 1 -19z m0 -140 c-3 -8 -6 -5 -6
6 -1 11 2 17 5 13 3 -3 4 -12 1 -19z m0 -50 c-3 -8 -6 -5 -6 6 -1 11 2 17 5
13 3 -3 4 -12 1 -19z"/>
<path d="M2503 3587 c-28 -18 -55 -36 -60 -41 -9 -11 107 52 122 65 20 19 -12
7 -62 -24z"/>
<path d="M2448 3594 c-38 -20 -36 -28 2 -9 17 9 30 18 30 20 0 7 -1 6 -32 -11z"/>
<path d="M2378 3554 c-38 -20 -36 -28 2 -9 17 9 30 18 30 20 0 7 -1 6 -32 -11z"/>
<path d="M2720 3500 c-47 -27 -81 -50 -77 -50 11 0 177 90 177 96 0 10 -21 1
-100 -46z"/>
<path d="M2323 3480 c-57 -33 -103 -63 -103 -66 0 -3 15 3 33 14 17 11 65 38
105 62 61 36 81 50 70 50 -2 0 -49 -27 -105 -60z"/>
<path d="M2308 3514 c-38 -20 -36 -28 2 -9 17 9 30 18 30 20 0 7 -1 6 -32 -11z"/>
<path d="M2878 3484 c-38 -20 -36 -28 2 -9 17 9 30 18 30 20 0 7 -1 6 -32 -11z"/>
<path d="M2210 3460 c-9 -6 -10 -10 -3 -10 6 0 15 5 18 10 8 12 4 12 -15 0z"/>
<path d="M2463 3427 c-40 -24 -76 -47 -80 -51 -10 -11 104 52 138 76 42 30 16
18 -58 -25z"/>
<path d="M2567 3415 c-80 -45 -85 -54 -7 -15 71 35 75 38 69 44 -2 2 -30 -11
-62 -29z"/>
<path d="M2770 3374 c-110 -58 -175 -106 -80 -59 92 46 207 116 188 115 -2 0
-50 -25 -108 -56z"/>
<path d="M2935 3401 c-33 -16 -69 -36 -80 -45 -11 -9 17 1 63 24 45 22 82 42
82 45 0 7 0 7 -65 -24z"/>
<path d="M2324 3344 c-18 -14 -18 -15 4 -4 12 6 22 13 22 15 0 8 -5 6 -26 -11z"/>
<path d="M2910 3255 c-91 -52 -161 -95 -157 -95 15 0 327 173 327 182 0 11 15
19 -170 -87z"/>
<path d="M2584 3304 c-18 -14 -18 -15 4 -4 12 6 22 13 22 15 0 8 -5 6 -26 -11z"/>
<path d="M2794 3294 c-18 -14 -18 -15 4 -4 12 6 22 13 22 15 0 8 -5 6 -26 -11z"/>
<path d="M2424 3217 c-96 -53 -181 -107 -149 -94 25 11 265 149 265 153 0 7 0
7 -116 -59z"/>
<path d="M2205 3214 c-75 -45 -98 -67 -29 -28 55 31 102 63 94 63 -3 0 -32
-16 -65 -35z"/>
<path d="M2938 3206 c-78 -44 -88 -58 -13 -17 55 30 86 51 75 51 -3 0 -31 -15
-62 -34z"/>
<path d="M3054 3214 c-18 -14 -18 -15 4 -4 12 6 22 13 22 15 0 8 -5 6 -26 -11z"/>
<path d="M2955 3160 c-38 -22 -66 -40 -62 -40 13 0 125 59 132 70 9 14 7 14
-70 -30z"/>
<path d="M2194 3174 c-18 -14 -18 -15 4 -4 12 6 22 13 22 15 0 8 -5 6 -26 -11z"/>
<path d="M2504 3154 c-18 -14 -18 -15 4 -4 12 6 22 13 22 15 0 8 -5 6 -26 -11z"/>
<path d="M2828 3144 c-38 -20 -36 -28 2 -9 17 9 30 18 30 20 0 7 -1 6 -32 -11z"/>
<path d="M2968 3104 c-27 -13 -48 -27 -48 -29 0 -3 23 6 50 20 28 14 50 28 50
30 0 7 1 7 -52 -21z"/>
<path d="M3093 3123 c4 -3 -1 -12 -11 -20 -15 -13 -15 -13 6 -3 19 9 23 30 5
30 -4 0 -3 -3 0 -7z"/>
<path d="M2404 3074 c-18 -14 -18 -15 4 -4 12 6 22 13 22 15 0 8 -5 6 -26 -11z"/>
<path d="M3037 3079 c-9 -5 -21 -8 -25 -5 -5 3 -9 -1 -9 -9 0 -10 5 -11 19 -4
10 5 22 8 27 5 4 -3 8 1 8 9 0 8 -1 15 -1 15 -1 0 -9 -5 -19 -11z"/>
<path d="M2188 3054 c-38 -20 -36 -28 2 -9 17 9 30 18 30 20 0 7 -1 6 -32 -11z"/>
<path d="M2733 3030 c-40 -23 -73 -43 -73 -46 0 -5 129 64 145 78 17 15 0 8
-72 -32z"/>
<path d="M2313 3024 c-35 -19 -63 -38 -63 -41 0 -5 109 54 125 68 16 16 1 9
-62 -27z"/>
<path d="M2544 3044 c-18 -14 -18 -15 4 -4 12 6 22 13 22 15 0 8 -5 6 -26 -11z"/>
<path d="M2205 3011 c-3 -5 -2 -12 3 -15 5 -3 9 1 9 9 0 17 -3 19 -12 6z"/>
<path d="M3035 2995 c-43 -27 -60 -32 -49 -13 4 7 3 8 -5 4 -6 -4 -8 -12 -5
-18 5 -7 2 -9 -8 -6 -9 4 -15 0 -15 -8 0 -8 3 -14 6 -14 9 0 121 70 121 76 0
6 -2 5 -45 -21z"/>
<path d="M2175 2991 c-3 -5 -2 -12 3 -15 5 -3 9 1 9 9 0 17 -3 19 -12 6z"/>
<path d="M2873 2983 c10 -10 -52 -44 -66 -37 -7 4 -9 3 -4 -1 10 -11 -121 -87
-136 -78 -7 3 -9 3 -5 -2 4 -4 0 -14 -10 -22 -26 -21 59 22 154 78 46 27 82
54 79 60 -4 5 -9 9 -12 9 -4 0 -3 -3 0 -7z"/>
<path d="M2907 2944 c-23 -12 -30 -34 -11 -34 3 0 2 5 -2 12 -5 8 -2 9 10 5
11 -5 15 -3 10 5 -5 7 -2 9 8 6 9 -4 15 0 15 8 0 8 -1 14 -1 14 -1 -1 -14 -8
-29 -16z"/>
<path d="M2975 2915 c-90 -50 -95 -60 -7 -16 52 27 104 61 92 60 -3 0 -41 -20
-85 -44z"/>
<path d="M2184 2924 c-18 -14 -18 -15 4 -4 12 6 22 13 22 15 0 8 -5 6 -26 -11z"/>
<path d="M2577 2926 c4 -5 -1 -7 -11 -3 -10 4 -15 3 -11 -3 8 -13 18 -13 39 3
16 12 16 13 -3 13 -11 0 -17 -5 -14 -10z"/>
<path d="M2497 2846 c-74 -45 -126 -82 -92 -64 32 16 185 110 185 114 0 6 1 7
-93 -50z"/>
<path d="M2967 2844 c-23 -12 -30 -34 -11 -34 3 0 2 5 -1 10 -3 6 -2 10 2 10
5 0 18 7 29 15 25 19 17 18 -19 -1z"/>
<path d="M2616 2828 c5 -8 2 -9 -10 -5 -11 5 -15 3 -10 -5 5 -7 2 -9 -8 -5
-18 6 -30 -1 -22 -14 3 -5 19 -2 35 6 16 9 27 20 24 25 -4 6 -8 10 -11 10 -3
0 -2 -5 2 -12z"/>
<path d="M2885 2797 c-14 -11 -15 -16 -5 -22 9 -6 11 -4 5 5 -6 9 -4 12 7 8 9
-4 15 0 15 8 0 17 1 17 -22 1z"/>
<path d="M2234 2784 c-18 -14 -18 -14 6 -3 31 14 36 19 24 19 -6 0 -19 -7 -30
-16z"/>
<path d="M2545 2790 c6 -10 4 -12 -7 -7 -22 8 -56 -17 -38 -28 9 -6 11 -4 5 5
-6 10 -4 12 7 7 22 -8 56 17 38 28 -9 6 -11 4 -5 -5z"/>
<path d="M2794 2784 c-18 -14 -18 -15 4 -4 12 6 22 13 22 15 0 8 -5 6 -26 -11z"/>
<path d="M2695 2755 c-33 -19 -57 -35 -52 -35 9 0 117 60 117 66 0 6 -2 5 -65
-31z"/>
<path d="M2805 2751 c-3 -5 -2 -12 3 -15 5 -3 9 1 9 9 0 17 -3 19 -12 6z"/>
<path d="M2250 2725 c-14 -8 -20 -14 -14 -15 5 0 19 7 30 15 24 18 16 19 -16
0z"/>
<path d="M2320 2670 c-47 -27 -81 -50 -76 -50 10 0 166 90 166 96 0 6 -1 6
-90 -46z"/>
<path d="M2737 2713 c-4 -3 -2 -12 4 -20 14 -17 -2 -17 -21 0 -12 10 -12 9 -2
-4 6 -9 8 -19 4 -24 -4 -4 3 -3 15 4 12 6 20 17 19 26 -3 19 -11 27 -19 18z"/>
<path d="M2448 2659 c-32 -16 -58 -32 -58 -34 0 -3 27 8 60 25 33 17 60 32 60
35 0 7 2 8 -62 -26z"/>
<path d="M2646 2661 c-3 -5 2 -15 12 -22 15 -12 16 -12 5 2 -7 9 -10 19 -6 22
3 4 4 7 0 7 -3 0 -8 -4 -11 -9z"/>
<path d="M2485 2594 c-141 -81 -265 -157 -265 -161 0 -3 19 6 43 20 23 13 99
57 169 96 70 40 130 76 133 82 9 14 7 13 -80 -37z"/>
<path d="M2984 2624 c-18 -14 -18 -15 4 -4 12 6 22 13 22 15 0 8 -5 6 -26 -11z"/>
<path d="M2453 2609 c-35 -22 -46 -37 -15 -20 22 13 58 40 52 41 -3 0 -20 -10
-37 -21z"/>
<path d="M2393 2583 c4 -3 -1 -12 -11 -20 -15 -13 -15 -13 6 -3 19 9 23 30 5
30 -4 0 -3 -3 0 -7z"/>
<path d="M3004 2574 c-18 -14 -18 -15 4 -4 12 6 22 13 22 15 0 8 -5 6 -26 -11z"/>
<path d="M2180 2520 c-8 -5 -12 -12 -9 -15 4 -3 12 1 19 10 14 17 11 19 -10 5z"/>
<path d="M3014 2514 c-18 -14 -18 -15 4 -4 12 6 22 13 22 15 0 8 -5 6 -26 -11z"/>
<path d="M2188 2483 c-27 -14 -46 -28 -43 -31 4 -5 95 46 95 53 0 7 -1 7 -52
-22z"/>
<path d="M2203 2460 c-28 -16 -54 -34 -58 -40 -3 -5 21 6 54 26 52 31 70 44
59 44 -2 0 -26 -14 -55 -30z"/>
<path d="M2312 2450 c-35 -21 -66 -41 -70 -46 -9 -10 130 65 143 77 20 19 -12
6 -73 -31z"/>
<path d="M2303 2414 c-24 -14 -43 -27 -43 -30 0 -7 78 35 85 46 9 14 5 13 -42
-16z"/>
<path d="M2178 2414 c-38 -20 -36 -28 2 -9 17 9 30 18 30 20 0 7 -1 6 -32 -11z"/>
<path d="M2250 2330 c-18 -12 -2 -12 25 0 13 6 15 9 5 9 -8 0 -22 -4 -30 -9z"/>
<path d="M3138 2314 c-38 -20 -36 -28 2 -9 17 9 30 18 30 20 0 7 -1 6 -32 -11z"/>
<path d="M2157 2276 c-58 -35 -58 -41 1 -12 28 14 52 29 52 31 0 10 -16 4 -53
-19z"/>
<path d="M3164 2284 c-18 -14 -18 -15 4 -4 12 6 22 13 22 15 0 8 -5 6 -26 -11z"/>
<path d="M2165 2252 c-51 -28 -138 -87 -120 -80 39 13 192 107 175 108 -3 0
-27 -13 -55 -28z"/>
<path d="M2028 2239 c-32 -16 -58 -32 -58 -34 0 -3 27 8 60 25 33 17 60 32 60
35 0 7 2 8 -62 -26z"/>
<path d="M3284 2134 c-18 -14 -18 -15 4 -4 12 6 22 13 22 15 0 8 -5 6 -26 -11z"/>
<path d="M1848 2104 c-38 -20 -36 -28 2 -9 17 9 30 18 30 20 0 7 -1 6 -32 -11z"/>
<path d="M2060 2116 c0 -2 8 -10 18 -17 15 -13 16 -12 3 4 -13 16 -21 21 -21
13z"/>
<path d="M3234 2104 c-18 -14 -18 -15 4 -4 12 6 22 13 22 15 0 8 -5 6 -26 -11z"/>
<path d="M1878 2094 c-33 -17 -34 -20 -8 -20 10 0 17 2 15 5 -3 2 3 10 13 17
23 18 14 17 -20 -2z"/>
<path d="M2044 2074 c-18 -14 -18 -15 4 -4 12 6 22 13 22 15 0 8 -5 6 -26 -11z"/>
<path d="M1948 2054 c-38 -20 -36 -28 2 -9 17 9 30 18 30 20 0 7 -1 6 -32 -11z"/>
<path d="M2090 2039 c-30 -16 -59 -35 -65 -41 -11 -12 104 49 120 63 16 15 2
10 -55 -22z"/>
<path d="M3560 2058 c0 -5 -5 -6 -12 -2 -7 4 -8 3 -4 -4 5 -9 13 -9 27 -2 23
13 24 17 4 17 -8 0 -15 -4 -15 -9z"/>
<path d="M1988 2044 c-38 -20 -36 -28 2 -9 17 9 30 18 30 20 0 7 -1 6 -32 -11z"/>
<path d="M3474 2044 c-18 -14 -18 -15 4 -4 12 6 22 13 22 15 0 8 -5 6 -26 -11z"/>
<path d="M1864 2004 c-18 -14 -18 -15 4 -4 12 6 22 13 22 15 0 8 -5 6 -26 -11z"/>
<path d="M3354 2004 c-18 -14 -18 -15 4 -4 12 6 22 13 22 15 0 8 -5 6 -26 -11z"/>
<path d="M3716 2008 c3 -5 10 -6 15 -3 13 9 11 12 -6 12 -8 0 -12 -4 -9 -9z"/>
<path d="M3760 2010 c-9 -6 -10 -10 -3 -10 6 0 15 5 18 10 8 12 4 12 -15 0z"/>
<path d="M3394 1994 c-18 -14 -18 -15 4 -4 12 6 22 13 22 15 0 8 -5 6 -26 -11z"/>
<path d="M3310 1980 c-9 -6 -10 -10 -3 -10 6 0 15 5 18 10 8 12 4 12 -15 0z"/>
<path d="M3313 1950 c-29 -17 -53 -33 -53 -36 0 -6 88 42 105 57 16 16 1 9
-52 -21z"/>
<path d="M3686 1963 c-6 -14 -5 -15 5 -6 7 7 10 15 7 18 -3 3 -9 -2 -12 -12z"/>
<path d="M3690 1899 c-74 -38 -140 -76 -145 -83 -6 -7 -43 -30 -82 -49 -67
-34 -190 -109 -202 -124 -3 -4 14 5 39 19 208 117 250 142 250 148 0 3 24 17
53 30 88 40 246 131 225 130 -2 0 -64 -32 -138 -71z"/>
<path d="M3740 1951 c-8 -6 -18 -7 -24 -4 -5 3 -6 1 -2 -5 5 -9 13 -9 27 -2
10 6 19 13 19 15 0 7 -3 6 -20 -4z"/>
<path d="M3645 1940 c-3 -6 1 -7 9 -4 18 7 21 14 7 14 -6 0 -13 -4 -16 -10z"/>
<path d="M3807 1915 c-32 -19 -63 -32 -69 -29 -7 5 -8 2 -3 -6 5 -8 3 -11 -6
-8 -8 3 -22 1 -32 -4 -15 -7 -16 -12 -6 -24 14 -17 -2 -19 -20 -1 -11 10 -12
9 -6 -1 5 -9 1 -12 -11 -10 -14 2 -18 -2 -16 -16 3 -17 2 -18 -12 -7 -14 12
-16 11 -10 -4 5 -12 4 -16 -3 -12 -6 4 -13 0 -17 -8 -3 -10 23 0 75 25 51 26
77 45 73 52 -5 8 -2 9 10 5 11 -5 15 -3 10 5 -5 8 -2 9 10 5 9 -4 15 -3 12 2
-3 4 17 19 45 31 52 25 70 40 47 40 -7 0 -39 -16 -71 -35z m-82 -68 c-11 -6
-21 -5 -28 3 -9 8 -7 9 7 4 13 -5 17 -4 12 4 -5 8 -2 10 10 5 15 -6 15 -7 -1
-16z"/>
<path d="M1904 1924 c-18 -14 -18 -14 6 -3 31 14 36 19 24 19 -6 0 -19 -7 -30
-16z"/>
<path d="M3473 1900 c-40 -23 -73 -43 -73 -45 0 -5 78 29 87 38 3 4 11 7 17 7
6 0 -4 -10 -21 -21 -46 -29 -41 -34 7 -7 22 13 34 25 28 27 -6 2 0 12 13 22
37 28 21 23 -58 -21z"/>
<path d="M3605 1920 c-3 -6 1 -7 9 -4 18 7 21 14 7 14 -6 0 -13 -4 -16 -10z"/>
<path d="M3624 1894 c-18 -14 -18 -15 4 -4 12 6 22 13 22 15 0 8 -5 6 -26 -11z"/>
<path d="M2034 1884 c-18 -14 -18 -15 4 -4 12 6 22 13 22 15 0 8 -5 6 -26 -11z"/>
<path d="M2078 1879 c-21 -11 -38 -22 -38 -24 0 -5 79 32 89 41 12 11 -18 1
-51 -17z"/>
<path d="M3773 1851 c-39 -22 -154 -88 -254 -147 -101 -59 -188 -107 -195
-107 -7 0 -11 -4 -8 -9 8 -12 326 160 484 260 82 53 67 54 -27 3z"/>
<path d="M1984 1854 c-18 -14 -18 -15 4 -4 12 6 22 13 22 15 0 8 -5 6 -26 -11z"/>
<path d="M3206 1861 c-4 -5 -2 -12 3 -15 5 -4 12 -2 15 3 4 5 2 12 -3 15 -5 4
-12 2 -15 -3z"/>
<path d="M3540 1845 c-14 -8 -20 -14 -14 -15 5 0 19 7 30 15 24 18 16 19 -16
0z"/>
<path d="M3796 1780 c-76 -44 -142 -78 -145 -75 -4 2 -8 -2 -8 -10 0 -8 2 -15
4 -15 9 0 88 44 141 77 31 20 62 36 69 36 7 0 9 5 6 10 -4 6 0 8 9 5 19 -8 81
29 73 42 -8 12 13 22 -149 -70z m144 65 c0 -2 -10 -9 -22 -15 -22 -11 -22 -10
-4 4 21 17 26 19 26 11z"/>
<path d="M3105 1840 c-8 -13 5 -13 25 0 13 8 13 10 -2 10 -9 0 -20 -4 -23 -10z"/>
<path d="M3295 1780 c-103 -57 -108 -67 -7 -16 61 31 115 65 102 65 -3 0 -45
-22 -95 -49z"/>
<path d="M3095 1790 c3 -6 1 -10 -6 -10 -7 0 -10 -3 -6 -6 3 -3 13 -2 22 4 16
8 16 9 1 15 -10 4 -15 3 -11 -3z"/>
<path d="M2095 1749 c-91 -46 -102 -54 -84 -64 7 -5 10 -4 6 2 -3 5 30 27 74
49 45 21 83 42 86 46 6 11 7 11 -82 -33z"/>
<path d="M3280 1699 c-155 -81 -212 -114 -295 -168 -38 -25 -77 -47 -85 -49
-8 -2 -22 -10 -30 -18 -12 -12 -12 -14 2 -14 9 0 19 7 22 16 6 15 10 14 34 -7
l27 -24 -20 24 c-20 24 -20 24 0 17 11 -4 16 -4 12 0 -4 4 1 13 11 20 21 16
36 18 26 3 -8 -13 13 -3 109 54 37 21 67 41 67 44 0 2 -3 2 -7 0 -5 -2 -41
-23 -81 -46 -41 -24 -75 -41 -77 -39 -7 7 118 84 256 158 119 64 163 90 149
90 -3 0 -57 -28 -120 -61z"/>
<path d="M1864 1724 c-18 -14 -18 -15 4 -4 12 6 22 13 22 15 0 8 -5 6 -26 -11z"/>
<path d="M2216 1728 c5 -8 2 -9 -10 -5 -10 4 -15 3 -11 -3 6 -9 -8 -14 -28
-11 -5 1 -6 -3 -2 -9 4 -6 17 -5 36 5 16 9 27 20 24 25 -4 6 -8 10 -11 10 -3
0 -2 -5 2 -12z"/>
<path d="M3875 1679 c-110 -56 -199 -114 -201 -129 -1 -6 -2 -14 -3 -20 0 -5
-19 -19 -41 -30 -22 -11 -40 -23 -40 -25 0 -7 51 19 123 62 45 28 55 38 47 48
-9 10 -7 16 9 24 25 14 34 14 25 0 -4 -8 0 -8 15 0 24 13 28 23 6 15 -27 -11
-16 5 15 21 34 18 44 19 34 4 -3 -6 8 -3 25 5 34 18 41 29 14 20 -15 -5 -15
-3 1 10 23 18 42 21 51 6 6 -9 65 14 65 26 0 2 -9 0 -20 -6 -18 -10 -24 -7
-21 13 2 11 3 11 -104 -44z m-120 -99 c4 -6 -1 -7 -11 -3 -11 4 -15 3 -10 -5
4 -7 -6 -18 -24 -27 -38 -20 -38 1 0 27 30 20 37 21 45 8z"/>
<path d="M3053 1670 c-76 -41 -183 -110 -171 -110 4 0 52 26 107 57 150 86
200 128 64 53z"/>
<path d="M3180 1691 c-110 -59 -151 -84 -147 -88 6 -5 107 46 152 76 29 20 25
29 -5 12z"/>
<path d="M3401 1665 c-36 -19 -70 -40 -75 -46 -11 -12 122 58 139 73 16 15 1
8 -64 -27z"/>
<path d="M1850 1680 c-9 -6 -10 -10 -3 -10 6 0 15 5 18 10 8 12 4 12 -15 0z"/>
<path d="M2233 1662 c-55 -36 -66 -49 -23 -27 39 20 87 55 74 54 -5 0 -28 -12
-51 -27z"/>
<path d="M3584 1675 c-16 -13 -16 -14 -1 -9 12 4 16 2 12 -7 -3 -8 -39 -31
-81 -53 -41 -21 -73 -40 -70 -43 2 -3 14 0 25 7 12 6 27 8 33 4 7 -5 8 -3 3 6
-6 10 -4 12 9 7 9 -4 15 -3 12 1 -3 5 9 17 27 27 41 24 89 69 62 59 -13 -5
-16 -4 -11 4 10 16 4 15 -20 -3z"/>
<path d="M1933 1650 c-29 -17 -53 -33 -53 -35 0 -5 83 36 110 54 33 23 -8 9
-57 -19z"/>
<path d="M2096 1672 c-3 -5 1 -9 9 -9 8 0 12 4 9 9 -3 4 -7 8 -9 8 -2 0 -6 -4
-9 -8z"/>
<path d="M3988 1661 c-1 -5 -37 -25 -78 -46 -102 -51 -269 -147 -360 -208 -93
-62 -95 -63 -79 -72 8 -6 10 -4 4 5 -6 10 -4 12 8 7 10 -4 16 -2 14 5 -1 6 4
13 12 16 9 3 11 0 6 -7 -4 -7 20 2 54 19 34 16 61 33 61 35 0 3 -14 -2 -31
-10 -17 -9 -33 -14 -35 -12 -6 6 127 80 143 80 7 0 15 7 18 15 3 8 12 11 21 8
8 -3 13 -2 10 3 -3 5 1 12 10 15 9 3 12 2 9 -5 -4 -5 34 10 84 35 96 49 106
52 95 35 -3 -6 8 -3 25 5 17 9 31 19 31 22 0 2 -9 0 -21 -6 -38 -21 -30 -3 11
24 42 28 55 45 19 25 -13 -7 -19 -7 -15 -1 3 6 2 13 -3 16 -5 4 -11 2 -13 -3z
m2 -26 c0 -2 -13 -11 -30 -20 -38 -19 -40 -11 -2 9 31 17 32 18 32 11z m-70
-40 c0 -2 -13 -11 -30 -20 -38 -19 -40 -11 -2 9 31 17 32 18 32 11z m-70 -40
c0 -2 -15 -12 -32 -20 l-33 -16 25 20 c24 20 40 26 40 16z m-300 -175 c-8 -5
-19 -10 -25 -10 -5 0 -3 5 5 10 8 5 20 10 25 10 6 0 3 -5 -5 -10z"/>
<path d="M3672 1601 c-130 -74 -146 -89 -25 -25 81 42 148 84 133 83 -3 0 -51
-26 -108 -58z"/>
<path d="M3226 1628 c3 -5 10 -6 15 -3 13 9 11 12 -6 12 -8 0 -12 -4 -9 -9z"/>
<path d="M3478 1619 c-21 -11 -38 -22 -38 -24 0 -3 18 4 40 15 22 11 40 23 40
25 0 7 0 7 -42 -16z"/>
<path d="M2595 1604 l-30 -25 33 17 c17 10 32 22 32 26 0 12 -2 11 -35 -18z"/>
<path d="M2740 1616 c-14 -8 -29 -12 -34 -9 -5 4 -6 0 -1 -7 6 -10 4 -12 -9
-7 -11 4 -15 3 -11 -4 4 -6 1 -9 -7 -7 -7 2 -14 -1 -15 -6 -1 -5 -7 -13 -15
-18 -9 -7 -7 -8 7 -3 11 4 29 8 40 9 11 1 19 7 18 14 -2 6 11 19 27 27 17 9
30 18 30 20 0 7 -1 6 -30 -9z"/>
<path d="M3184 1614 c-18 -15 -18 -15 2 -5 12 6 25 7 29 3 5 -4 5 -1 1 6 -9
15 -8 15 -32 -4z"/>
<path d="M2073 1585 c0 -8 4 -12 9 -9 5 3 6 10 3 15 -9 13 -12 11 -12 -6z"/>
<path d="M3993 1564 c-35 -19 -63 -37 -63 -40 0 -7 118 55 125 66 9 14 7 13
-62 -26z"/>
<path d="M2028 1574 c-16 -8 -28 -17 -28 -20 0 -2 9 0 20 6 11 6 24 9 29 6 4
-3 8 1 8 9 0 8 -1 15 -1 15 -1 -1 -13 -8 -28 -16z"/>
<path d="M3203 1559 c-53 -31 -68 -44 -36 -32 12 5 14 3 8 -7 -5 -9 -4 -11 4
-6 6 4 8 12 5 18 -5 8 -1 9 10 5 10 -4 15 -3 11 3 -3 5 3 14 14 19 25 14 34
14 25 0 -5 -8 -1 -8 13 0 11 6 24 7 28 3 5 -4 5 -2 1 5 -4 7 -14 9 -23 6 -11
-4 -14 -3 -9 5 10 16 8 16 -51 -19z"/>
<path d="M3404 1574 c-18 -14 -18 -15 4 -4 12 6 22 13 22 15 0 8 -5 6 -26 -11z"/>
<path d="M2367 1529 c-32 -16 -55 -34 -52 -39 3 -6 8 -10 11 -10 3 0 3 4 0 8
-3 5 17 20 45 32 28 13 53 28 55 32 7 11 6 11 -59 -23z"/>
<path d="M2396 1495 c-54 -36 -103 -62 -109 -58 -6 3 -7 1 -3 -5 4 -6 -1 -10
-11 -9 -10 0 -54 -23 -98 -52 -99 -66 -100 -67 -84 -76 8 -6 10 -4 4 5 -6 10
-4 12 8 7 10 -4 16 -2 14 6 -1 7 6 11 15 11 10 -1 16 2 13 6 -5 9 74 63 92 63
7 0 10 4 7 8 -2 4 4 7 13 7 18 -2 227 124 238 143 9 13 9 13 -99 -56z"/>
<path d="M3978 1514 c-84 -48 -101 -64 -40 -36 77 36 122 63 122 72 0 13 5 15
-82 -36z"/>
<path d="M2798 1534 c-16 -8 -28 -17 -28 -19 0 -10 16 -4 40 15 30 23 25 25
-12 4z"/>
<path d="M3334 1534 c-18 -14 -18 -15 4 -4 12 6 22 13 22 15 0 8 -5 6 -26 -11z"/>
<path d="M2104 1514 c-18 -14 -18 -15 4 -4 12 6 22 13 22 15 0 8 -5 6 -26 -11z"/>
<path d="M2874 1516 c-19 -15 -19 -15 2 -13 11 0 21 7 21 14 0 16 1 16 -23 -1z"/>
<path d="M3105 1463 c-60 -31 -105 -58 -100 -60 10 -3 215 104 215 113 0 6 5
8 -115 -53z"/>
<path d="M3265 1464 c-55 -30 -104 -60 -110 -66 -11 -12 205 99 220 113 22 22
-16 5 -110 -47z"/>
<path d="M3488 1499 c-21 -11 -38 -22 -38 -24 0 -3 18 4 40 15 22 11 40 23 40
25 0 7 0 7 -42 -16z"/>
<path d="M2540 1485 c-14 -8 -20 -14 -14 -15 5 0 19 7 30 15 24 18 16 19 -16
0z"/>
<path d="M2821 1486 c-9 -11 -9 -16 1 -22 7 -4 10 -4 6 1 -4 4 0 14 10 21 9 7
12 14 6 14 -6 0 -17 -6 -23 -14z"/>
<path d="M4015 1479 c-4 -6 -5 -12 -2 -15 2 -3 7 2 10 11 7 17 1 20 -8 4z"/>
<path d="M3545 1471 c-3 -5 -2 -12 3 -15 5 -3 9 1 9 9 0 17 -3 19 -12 6z"/>
<path d="M3990 1461 c0 -7 -5 -9 -12 -5 -7 5 -8 3 -3 -5 5 -9 10 -10 18 -2 6
6 8 14 4 18 -4 3 -7 1 -7 -6z"/>
<path d="M3492 1440 c-37 -23 -46 -25 -36 -8 4 7 3 8 -5 4 -6 -4 -8 -12 -5
-18 5 -7 2 -9 -8 -5 -18 6 -30 -1 -22 -15 5 -8 84 31 109 53 15 15 2 10 -33
-11z"/>
<path d="M2900 1446 c0 -2 7 -7 16 -10 8 -3 12 -2 9 4 -6 10 -25 14 -25 6z"/>
<path d="M3374 1434 c-18 -14 -18 -15 4 -4 12 6 22 13 22 15 0 8 -5 6 -26 -11z"/>
<path d="M3895 1414 c-76 -46 -81 -50 -47 -49 15 0 26 6 25 12 -1 6 18 23 42
38 25 14 45 28 45 30 0 7 0 7 -65 -31z"/>
<path d="M3111 1416 c-25 -13 -45 -31 -47 -40 -3 -20 16 -21 42 -1 18 14 17
15 -11 10 -25 -5 -22 -2 18 20 26 14 47 28 47 30 0 7 1 7 -49 -19z"/>
<path d="M3257 1371 c-63 -35 -109 -68 -60 -42 27 14 36 14 27 0 -4 -8 0 -8
15 0 12 7 27 9 33 5 7 -4 8 -3 4 4 -4 7 9 19 34 32 40 20 55 35 23 23 -11 -4
-14 -3 -9 5 10 16 10 16 -67 -27z m28 -6 c-22 -13 -44 -24 -50 -25 -5 0 8 11
30 25 22 13 45 24 50 25 6 0 -8 -11 -30 -25z"/>
<path d="M3734 1385 c-5 -13 -9 -13 -23 -3 -14 12 -14 11 -2 -4 10 -14 17 -15
32 -7 11 5 17 14 14 20 -9 13 -15 11 -21 -6z"/>
<path d="M3588 1374 c-38 -20 -36 -28 2 -9 17 9 30 18 30 20 0 7 -1 6 -32 -11z"/>
<path d="M3645 1380 c-3 -6 1 -7 9 -4 18 7 21 14 7 14 -6 0 -13 -4 -16 -10z"/>
<path d="M3668 1369 c-9 -5 -15 -16 -12 -23 3 -9 -15 -25 -50 -45 -63 -35 -70
-37 -62 -16 5 13 2 14 -15 5 -16 -9 -18 -14 -8 -26 14 -17 -2 -19 -21 -1 -12
10 -12 9 -1 -5 8 -11 9 -18 3 -18 -6 0 -14 5 -17 10 -4 7 -13 6 -26 -1 -15 -8
-18 -14 -10 -23 6 -7 7 -16 3 -21 -8 -9 59 28 176 98 68 40 81 51 71 63 -6 8
-12 14 -13 14 0 0 -9 -5 -18 -11z m21 -20 c-7 -4 -17 -5 -22 -2 -5 3 -3 9 4
14 7 4 17 5 22 2 5 -3 3 -9 -4 -14z m-208 -122 c-8 -8 -14 -7 -23 2 -10 11
-10 13 0 7 6 -4 12 -2 12 4 0 6 5 8 11 4 8 -4 8 -9 0 -17z"/>
<path d="M4009 1353 c-13 -16 -12 -17 4 -4 16 13 21 21 13 21 -2 0 -10 -8 -17
-17z"/>
<path d="M3584 1344 c-18 -14 -18 -15 4 -4 12 6 22 13 22 15 0 8 -5 6 -26 -11z"/>
<path d="M3924 1344 c-18 -14 -18 -15 4 -4 12 6 22 13 22 15 0 8 -5 6 -26 -11z"/>
<path d="M3588 1324 c-38 -20 -36 -28 2 -9 17 9 30 18 30 20 0 7 -1 6 -32 -11z"/>
<path d="M3944 1324 c-18 -14 -18 -15 4 -4 12 6 22 13 22 15 0 8 -5 6 -26 -11z"/>
<path d="M3747 1314 c-15 -8 -33 -12 -39 -8 -7 5 -8 3 -3 -6 6 -10 4 -12 -8
-7 -9 3 -16 2 -14 -3 1 -6 -20 -24 -48 -40 -27 -16 -46 -30 -41 -30 10 0 143
73 171 94 25 19 18 19 -18 0z"/>
<path d="M3773 1262 c-115 -64 -178 -105 -103 -67 59 29 230 127 230 131 0 6
1 7 -127 -64z"/>
<path d="M3195 1310 c-3 -6 1 -13 10 -16 14 -6 14 -8 -1 -19 -14 -9 -14 -14
-4 -20 9 -6 11 -4 5 5 -6 9 -4 12 6 8 11 -4 15 1 15 17 0 16 -4 21 -15 17 -9
-3 -12 -1 -7 6 4 7 5 12 2 12 -3 0 -8 -5 -11 -10z"/>
<path d="M2134 1274 c-32 -20 -64 -37 -71 -37 -7 0 -10 -4 -7 -9 3 -5 16 -3
27 5 12 7 43 26 70 41 41 24 55 36 44 36 -2 0 -30 -16 -63 -36z"/>
<path d="M3894 1294 c-18 -14 -18 -15 4 -4 12 6 22 13 22 15 0 8 -5 6 -26 -11z"/>
<path d="M3243 1285 c0 -8 4 -12 9 -9 5 3 6 10 3 15 -9 13 -12 11 -12 -6z"/>
<path d="M1994 1274 c-18 -14 -18 -15 4 -4 12 6 22 13 22 15 0 8 -5 6 -26 -11z"/>
<path d="M3120 1280 c-9 -6 -10 -10 -3 -10 6 0 15 5 18 10 8 12 4 12 -15 0z"/>
<path d="M3333 1254 c-24 -14 -43 -27 -43 -30 0 -6 67 33 85 48 17 15 1 8 -42
-18z"/>
<path d="M3148 1263 c-10 -2 -18 -9 -18 -14 0 -6 8 -5 20 1 19 10 24 6 21 -13
-1 -5 3 -6 9 -2 8 5 7 11 -1 21 -6 8 -12 13 -13 13 0 -1 -9 -3 -18 -6z"/>
<path d="M3350 1222 c-47 -26 -88 -48 -92 -47 -3 0 -10 -3 -14 -7 -29 -30 126
44 181 86 34 26 13 17 -75 -32z"/>
<path d="M3658 1226 c-78 -44 -88 -58 -13 -17 55 30 86 51 75 51 -3 0 -31 -15
-62 -34z"/>
<path d="M3223 1225 c-18 -8 -33 -16 -33 -19 0 -6 51 14 65 26 13 11 5 10 -32
-7z"/>
<path d="M3657 1141 c-97 -54 -180 -101 -184 -105 -14 -14 110 47 170 84 34
20 85 49 112 63 48 24 96 56 85 57 -3 0 -85 -44 -183 -99z"/>
<path d="M3377 1204 c-23 -12 -30 -34 -11 -34 3 0 2 5 -2 12 -5 8 -2 9 10 5
10 -4 19 -1 22 8 4 8 11 12 17 8 6 -3 7 -1 3 5 -9 14 -5 15 -39 -4z"/>
<path d="M3508 1194 c-27 -13 -48 -27 -48 -29 0 -3 23 6 50 20 28 14 50 28 50
30 0 7 1 7 -52 -21z"/>
<path d="M3315 1167 c-14 -11 -15 -16 -5 -22 9 -5 11 -4 6 3 -7 11 6 17 27 13
5 -1 6 3 2 9 -8 13 -8 13 -30 -3z"/>
<path d="M3610 1170 c-9 -6 -10 -10 -3 -10 6 0 15 5 18 10 8 12 4 12 -15 0z"/>
<path d="M3733 1127 c-97 -54 -120 -76 -35 -33 27 14 53 22 57 18 5 -4 5 -2 1
5 -3 6 1 14 11 17 17 6 73 46 63 45 -3 0 -46 -24 -97 -52z"/>
<path d="M3400 1130 c-12 -12 -32 -25 -45 -30 -21 -8 -36 -30 -20 -30 13 0 84
53 89 66 8 20 0 18 -24 -6z"/>
<path d="M3517 1107 c3 -5 0 -7 -8 -5 -12 4 -69 -17 -69 -25 0 -2 9 -3 19 -3
11 0 17 4 14 9 -3 5 0 7 8 5 12 -4 69 17 69 25 0 2 -9 3 -19 3 -11 0 -17 -4
-14 -9z"/>
<path d="M3764 1094 c-18 -15 -18 -15 2 -5 12 6 25 7 29 3 5 -4 5 -1 1 6 -9
15 -8 15 -32 -4z"/>
<path d="M3714 1064 c-18 -14 -18 -15 4 -4 12 6 22 13 22 15 0 8 -5 6 -26 -11z"/>
</g>
</svg>
